<?xml version="1.0" encoding="UTF-8"?>
<svg version="1.1" xmlns="http://www.w3.org/2000/svg" width="512" height="512">
<path d="M0 0 C0.99422974 0.00215515 1.98845947 0.0043103 3.01281738 0.00653076 C17.48109955 0.05686686 31.66189071 0.35398296 45.875 3.3125 C46.85130371 3.51117676 47.82760742 3.70985352 48.83349609 3.91455078 C92.93533163 13.14130998 134.1475602 32.16221291 167.875 62.3125 C168.70773437 63.03566406 169.54046875 63.75882813 170.3984375 64.50390625 C181.48127894 74.24174266 191.82584156 84.65172782 200.875 96.3125 C201.638125 97.24707031 202.40125 98.18164062 203.1875 99.14453125 C238.60306402 143.35723056 256.35902737 199.45533652 256.25 255.6875 C256.24978851 256.69763153 256.24957703 257.70776306 256.24935913 258.74850464 C256.21561575 274.93653104 255.25628357 290.43480871 251.875 306.3125 C251.68776367 307.23627441 251.50052734 308.16004883 251.30761719 309.11181641 C240.46044582 361.89576345 210.97092487 414.9518031 168.875 449.3125 C168.03324219 450.04210937 167.19148438 450.77171875 166.32421875 451.5234375 C134.9153234 478.4696346 96.50470188 497.47889201 56.1875 506.5625 C55.09566406 506.80887207 54.00382812 507.05524414 52.87890625 507.30908203 C49.55214823 508.0288516 46.22092086 508.68798625 42.875 509.3125 C41.81635742 509.51117676 40.75771484 509.70985352 39.66699219 509.91455078 C27.9064657 511.79724451 16.07333569 511.68468201 4.19091797 511.68310547 C0.54215775 511.68744981 -3.10536113 511.72379004 -6.75390625 511.76171875 C-27.0546338 511.8598728 -46.81047483 509.62318869 -66.375 504.0625 C-67.44741943 503.7636792 -68.51983887 503.4648584 -69.62475586 503.15698242 C-101.00204987 494.18041058 -130.49646409 479.54756791 -156.125 459.3125 C-156.94742188 458.68214844 -157.76984375 458.05179687 -158.6171875 457.40234375 C-173.92705961 445.49194804 -188.19244991 431.59379416 -200.125 416.3125 C-200.90230469 415.35214844 -201.67960937 414.39179688 -202.48046875 413.40234375 C-244.17309324 360.97171422 -262.03729972 292.81219319 -255 226.5625 C-248.55318338 172.80481357 -225.79442015 123.68779947 -189.37890625 83.7890625 C-187.8507804 82.10997795 -186.33814142 80.41669177 -184.83984375 78.7109375 C-180.92621329 74.26698661 -176.99221897 70.0840686 -172.45703125 66.2734375 C-170.63485625 64.74122335 -168.85037153 63.18580162 -167.07421875 61.6015625 C-158.56576217 54.06831541 -149.63942383 47.51636407 -140.125 41.3125 C-138.59359375 40.30123047 -138.59359375 40.30123047 -137.03125 39.26953125 C-109.99943041 22.01896217 -80.23510748 10.51377455 -48.875 4.0625 C-48.14442383 3.91127686 -47.41384766 3.76005371 -46.66113281 3.60424805 C-31.13501527 0.60634637 -15.77443541 -0.0615546 0 0 Z " fill="#43A047" transform="translate(256.125,0.6875)"/>
<path d="M0 0 C3.13738154 1.39080525 5.25475281 3.01022204 7.66699219 5.43994141 C8.71762848 6.49080429 8.71762848 6.49080429 9.78948975 7.56289673 C10.53442688 8.31815643 11.27936401 9.07341614 12.046875 9.8515625 C12.81807678 10.62559418 13.58927856 11.39962585 14.3838501 12.19711304 C16.84396856 14.66841923 19.29703848 17.14659183 21.75 19.625 C23.41750894 21.30254052 25.08547232 22.97962945 26.75390625 24.65625 C30.84122472 28.76561022 34.92237281 32.88102589 39 37 C35.17599988 41.56964892 31.22181138 45.92089744 26.99462891 50.11889648 C26.42804565 50.68562576 25.8614624 51.25235504 25.27770996 51.83625793 C23.42969132 53.68358747 21.57817097 55.52736301 19.7265625 57.37109375 C18.43454448 58.66124403 17.14274904 59.95161724 15.85116577 61.24220276 C12.47012957 64.61944189 9.08609986 67.99366562 5.70141602 71.36724854 C2.24052041 74.81786929 -1.21750543 78.27136338 -4.67578125 81.72460938 C-11.44773144 88.48587186 -18.22285083 95.24394899 -25 102 C-28.06268033 100.629199 -30.20199357 99.06190578 -32.59106445 96.71533203 C-33.61651115 95.71386642 -33.61651115 95.71386642 -34.66267395 94.69216919 C-35.38887436 93.97133148 -36.11507477 93.25049377 -36.86328125 92.5078125 C-37.99034737 91.39428909 -37.99034737 91.39428909 -39.1401825 90.25827026 C-40.72386227 88.68908243 -42.30475839 87.11708096 -43.88305664 85.54248047 C-46.30875685 83.12872472 -48.75247863 80.73424557 -51.19726562 78.33984375 C-52.73291624 76.81365164 -54.2674604 75.28634524 -55.80078125 73.7578125 C-56.53710281 73.04102325 -57.27342438 72.32423401 -58.03205872 71.58572388 C-58.69992905 70.91177582 -59.36779938 70.23782776 -60.0559082 69.54345703 C-60.94715141 68.65981979 -60.94715141 68.65981979 -61.85639954 67.7583313 C-63 66 -63 66 -62.72610092 64.06727791 C-61.51271546 60.61265489 -58.7575854 58.36903762 -56.19506836 55.85449219 C-55.59020096 55.24918671 -54.98533356 54.64388123 -54.36213684 54.02023315 C-52.36173476 52.02192053 -50.35091749 50.0344427 -48.33984375 48.046875 C-46.95056499 46.66319161 -45.56194725 45.27884424 -44.17396545 43.89385986 C-40.51939089 40.2507386 -36.85589668 36.61671615 -33.19049072 32.98449707 C-29.45165739 29.27635392 -25.72130418 25.5597017 -21.99023438 21.84375 C-14.66844458 14.55413296 -7.33720638 7.27409729 0 0 Z " fill="#FCFDFB" transform="translate(251,161)"/>
<path d="M0 0 C1.02609375 -0.02578125 2.0521875 -0.0515625 3.109375 -0.078125 C9.32607641 0.57138112 13.25456954 3.87802929 17.56518555 8.17700195 C18.05867493 8.66523438 18.55216431 9.1534668 19.06060791 9.65649414 C20.67689938 11.25966766 22.28206768 12.87346299 23.88671875 14.48828125 C25.01395148 15.61349089 26.14162903 16.73825505 27.26972961 17.8625946 C29.62719221 20.21564494 31.97917076 22.57400815 34.32739258 24.9362793 C37.32991797 27.95589571 40.3457118 30.96184249 43.36575603 33.96392536 C45.69525589 36.28255777 48.01753009 38.60832154 50.33771706 40.93626976 C51.44664471 42.04719123 52.5577847 43.15590907 53.67120934 44.26232338 C55.22920206 45.81265291 56.77718274 47.37235484 58.32299805 48.93481445 C59.2042485 49.81845169 60.08549896 50.70208893 60.99345398 51.61250305 C65.17585179 56.5009748 66.79846588 60.70445656 66.5234375 67.01953125 C65.67536073 73.93741462 62.28107662 77.56465876 57.1875 81.8671875 C53.88057147 84.2273744 50.89189169 84.45858099 46.9375 84.5625 C46.01324219 84.59988281 45.08898437 84.63726562 44.13671875 84.67578125 C38.21642865 83.80255849 34.04629764 79.30135309 29.93481445 75.2253418 C29.44132507 74.73856964 28.94783569 74.25179749 28.43939209 73.75027466 C26.82541399 72.15514428 25.21894038 70.55271985 23.61328125 68.94921875 C22.48575504 67.82812758 21.35808232 66.70718374 20.23027039 65.58638 C17.87415308 63.24220087 15.52216852 60.89396232 13.17260742 58.54321289 C10.17008147 55.54048348 7.15401635 52.55176498 4.13424397 49.56639385 C1.80330515 47.25774894 -0.5184293 44.940013 -2.83771706 42.61966896 C-3.94562056 41.51411593 -5.05674658 40.41178202 -6.17120934 39.31284142 C-7.73153281 37.77223647 -9.27852989 36.21932036 -10.82299805 34.6628418 C-12.14487373 33.34524117 -12.14487373 33.34524117 -13.49345398 32.00102234 C-17.29218071 27.36988165 -19.42600055 22.44051297 -19.1640625 16.296875 C-17.82007527 9.65301361 -13.00486167 5.10356522 -7.75 1.25 C-5.08790335 -0.08104832 -2.97300512 0.04437321 0 0 Z " fill="#FEFEFD" transform="translate(329.75,284.75)"/>
<path d="M0 0 C1.51844513 -0.01051392 1.51844513 -0.01051392 3.06756592 -0.02124023 C6.40022547 -0.03878628 9.73202967 -0.02720809 13.06469727 -0.01367188 C15.38965517 -0.01636796 17.71461198 -0.02025135 20.03956604 -0.02526855 C24.90750892 -0.03115922 29.77515777 -0.02261499 34.64306641 -0.00390625 C40.87172861 0.01886988 47.09970083 0.00576531 53.32833767 -0.01819611 C58.12829246 -0.03267634 62.92808472 -0.02803757 67.72804451 -0.01768494 C70.02407984 -0.01502316 72.3201301 -0.01826799 74.61614799 -0.02760315 C77.83043151 -0.03780358 81.04361085 -0.0222171 84.2578125 0 C85.19988052 -0.00809692 86.14194855 -0.01619385 87.11256409 -0.02453613 C93.10640323 0.0519098 97.69837059 1.08764374 102.69360352 4.51757812 C108.94189873 11.24651143 107.69360352 12.70515675 107.69360352 23.51757812 C65.12360352 23.51757812 22.55360352 23.51757812 -21.30639648 23.51757812 C-21.30639648 10.51757812 -21.30639648 10.51757812 -19.74389648 6.95507812 C-13.57877835 0.78995999 -8.39570323 -0.07200501 0 0 Z " fill="#FCFDFB" transform="translate(138.306396484375,354.482421875)"/>
<path d="M0 0 C0.80824219 -0.06316406 1.61648438 -0.12632812 2.44921875 -0.19140625 C10.04297096 1.8080401 16.48022066 10.58258475 21.8984375 16.015625 C22.68143219 16.79766296 23.46442688 17.57970093 24.27114868 18.38543701 C25.9109979 20.02461042 27.54960386 21.66502848 29.18701172 23.30664062 C31.69775797 25.82278 34.21384536 28.33349037 36.73046875 30.84375 C38.32844605 32.44238748 39.92611345 34.0413348 41.5234375 35.640625 C42.27547455 36.39063782 43.0275116 37.14065063 43.80233765 37.91339111 C44.49711212 38.61131775 45.1918866 39.30924438 45.90771484 40.02832031 C46.51868011 40.64008118 47.12964539 41.25184204 47.75912476 41.88214111 C50.96156365 45.34636952 51.74946247 47.78687512 51.63671875 52.49609375 C51.10852139 55.86255645 49.45625064 57.98999923 47.3125 60.5625 C43.70924645 62.96466903 41.56143158 63.44430975 37.27905273 63.26831055 C33.43673968 62.35413665 31.8109911 60.73082038 28.96875 58 C28.46078384 57.51674759 27.95281769 57.03349518 27.42945862 56.53559875 C25.71056372 54.89106606 24.01099046 53.22808626 22.3125 51.5625 C21.03706675 50.32442297 19.76159341 49.08638723 18.48608398 47.84838867 C15.07798954 44.52653352 11.69742269 41.17805926 8.32739258 37.81762695 C6.22853274 35.72863365 4.11922444 33.65054897 2.00976562 31.57226562 C0.66080487 30.22982299 -0.6875261 28.88674714 -2.03515625 27.54296875 C-2.6601149 26.9303569 -3.28507355 26.31774506 -3.92897034 25.68656921 C-8.107089 21.48689428 -11.24280809 17.61181596 -12.125 11.5625 C-11.56242911 7.70487107 -10.09734263 5.59201645 -7.6875 2.5625 C-4.6209811 0.51815407 -3.54700668 0.17261728 0 0 Z " fill="#FBFDFA" transform="translate(263.6875,135.4375)"/>
<path d="M0 0 C3.37973197 0.68177352 4.59169839 1.67435332 7.078125 4.03613281 C7.94300537 4.85299561 8.80788574 5.6698584 9.69897461 6.51147461 C10.74474669 7.52995688 11.78895339 8.55004768 12.83203125 9.57128906 C13.45949249 10.18058258 14.08695374 10.7898761 14.73342896 11.41763306 C19.1877734 15.74805304 23.60454231 20.11475283 28.00292969 24.50195312 C30.34777552 26.83696732 32.70308207 29.16110341 35.05859375 31.48535156 C36.55664424 32.97688183 38.05406332 34.46904661 39.55078125 35.96191406 C40.25279663 36.65158264 40.95481201 37.34125122 41.67810059 38.05181885 C48.63122696 45.03713363 48.63122696 45.03713363 48.94921875 50.63378906 C48.35993675 55.34804509 47.30450062 58.09881969 43.83203125 61.57128906 C39.90660611 63.53400163 36.07915926 63.37577918 31.83203125 62.57128906 C29.72265625 61.14794922 29.72265625 61.14794922 27.58203125 59.11035156 C26.28555664 57.88421143 26.28555664 57.88421143 24.96289062 56.63330078 C23.91795552 55.61397683 22.87447065 54.59316517 21.83203125 53.57128906 C21.20466064 52.96190491 20.57729004 52.35252075 19.9309082 51.72467041 C15.47649313 47.39431204 11.05952613 43.02783122 6.66113281 38.640625 C4.31628698 36.30561081 1.96098043 33.98147471 -0.39453125 31.65722656 C-1.89258174 30.16569629 -3.39000082 28.67353152 -4.88671875 27.18066406 C-5.58873413 26.49099548 -6.29074951 25.8013269 -7.01403809 25.09075928 C-11.23579185 20.84946157 -13.76620954 17.71840286 -14.54296875 11.63378906 C-14.0618244 7.70444358 -12.61281232 5.6448067 -10.16796875 2.57128906 C-6.52369861 0.14177564 -4.31742172 -0.19256866 0 0 Z " fill="#FBFDFA" transform="translate(176.16796875,225.4287109375)"/>
<path d="M0 0 C3.72907476 1.55884131 6.10701374 3.85347904 8.95214844 6.69335938 C9.4306575 7.1683638 9.90916656 7.64336823 10.4021759 8.13276672 C11.97629809 9.69811353 13.54302394 11.27062994 15.109375 12.84375 C16.2019577 13.93498529 17.29483712 15.02592355 18.38800049 16.11657715 C20.67420649 18.39983795 22.9567638 20.68666913 25.23681641 22.97607422 C28.16461727 25.91529627 31.10134092 28.84541309 34.0408287 31.77294159 C36.29715329 34.02205434 38.54871137 36.27589 40.79883575 38.53120422 C41.88028255 39.61398799 42.96322471 40.69528031 44.04766083 41.77507019 C45.55846632 43.28081863 47.06274863 44.7927902 48.56542969 46.30664062 C49.4238446 47.16664673 50.28225952 48.02665283 51.16668701 48.91271973 C53 51 53 51 53 53 C51.989375 53.474375 50.97875 53.94875 49.9375 54.4375 C45.04922942 57.18091716 42.1711938 61.48900092 39 66 C32.79652613 60.87458022 27.14315324 55.2723094 21.47265625 49.5703125 C20.47396983 48.56975714 19.47505953 47.56942519 18.47593689 46.56930542 C15.86808036 43.9576612 13.26324305 41.34302633 10.65905762 38.72772217 C7.99264764 36.05101677 5.32334536 33.37719898 2.65429688 30.703125 C-2.56661101 25.47154602 -7.78432751 20.23679904 -13 15 C-11.16307611 10.99625569 -8.50882084 8.28042066 -5.375 5.25 C-4.859375 4.74339844 -4.34375 4.23679688 -3.8125 3.71484375 C-2.54616661 2.47196098 -1.2736856 1.23534724 0 0 Z " fill="#FAFCFA" transform="translate(268,228)"/>
<path d="M0 0 C0.70310303 -0.00686325 1.40620605 -0.0137265 2.13061523 -0.02079773 C4.44478804 -0.0390341 6.75828082 -0.03523295 9.07250977 -0.02954102 C10.68767008 -0.03410446 12.30282845 -0.03941052 13.91798401 -0.04542542 C17.29973244 -0.05435035 20.68124465 -0.05194065 24.06298828 -0.04199219 C28.3885116 -0.0305049 32.71321825 -0.05071279 37.0386343 -0.07990932 C40.37332811 -0.09828973 43.7078269 -0.09797522 47.04255867 -0.0922718 C48.63690397 -0.0921188 50.23126267 -0.09814555 51.82555962 -0.11056328 C54.05870079 -0.12550668 56.29034202 -0.11477378 58.5234375 -0.09765625 C60.4260862 -0.097407 60.4260862 -0.097407 62.36717224 -0.09715271 C67.38282092 0.62955827 70.5361866 2.81276979 73.70141602 6.71655273 C74.82641602 9.40405273 74.82641602 9.40405273 74.82641602 16.40405273 C44.79641602 16.40405273 14.76641602 16.40405273 -16.17358398 16.40405273 C-16.17358398 8.16080949 -16.17358398 8.16080949 -12.17358398 3.40405273 C-8.09379689 0.34516908 -5.04496024 0.02150288 0 0 Z " fill="#FCFDFB" transform="translate(151.173583984375,332.595947265625)"/>
</svg>
